<?xml version="1.0" encoding="utf-8"?>
<!-- Generator: Adobe Illustrator 21.0.0, SVG Export Plug-In . SVG Version: 6.00 Build 0)  -->
<svg version="1.1" id="Livello_1" xmlns="http://www.w3.org/2000/svg" xmlns:xlink="http://www.w3.org/1999/xlink" x="0px" y="0px"
	 viewBox="0 0 24 24" style="enable-background:new 0 0 24 24;" xml:space="preserve">
<style type="text/css">
	.st0{fill:#C11434;}
</style>
<path class="st0" d="M20.5,0h-17C2.7,0,2,0.7,2,1.5v16c0,0.1,0,0.1,0,0.2s0.1,0.1,0.1,0.2l0,0l6,6l0,0c0,0,0.1,0.1,0.2,0.1
	c0.1,0,0.1,0,0.2,0h12c0.8,0,1.5-0.7,1.5-1.5v-21C22,0.7,21.3,0,20.5,0z M8,22.3L3.7,18h3.8C7.8,18,8,18.2,8,18.5V22.3z M21,22.5
	c0,0.3-0.2,0.5-0.5,0.5H9v-4.5C9,17.7,8.3,17,7.5,17H3V1.5C3,1.2,3.2,1,3.5,1h17C20.8,1,21,1.2,21,1.5V22.5z"/>
<path class="st0" d="M17,5H7C6.7,5,6.5,4.8,6.5,4.5S6.7,4,7,4h10c0.3,0,0.5,0.2,0.5,0.5S17.3,5,17,5z"/>
<path class="st0" d="M17,8H7C6.7,8,6.5,7.8,6.5,7.5S6.7,7,7,7h10c0.3,0,0.5,0.2,0.5,0.5S17.3,8,17,8z"/>
<path class="st0" d="M12,11H7c-0.3,0-0.5-0.2-0.5-0.5S6.7,10,7,10h5c0.3,0,0.5,0.2,0.5,0.5S12.3,11,12,11z"/>
</svg>
