<?xml version="1.0" encoding="utf-8"?>
<!-- Generator: Adobe Illustrator 21.0.0, SVG Export Plug-In . SVG Version: 6.00 Build 0)  -->
<svg version="1.1" id="Livello_1" xmlns="http://www.w3.org/2000/svg" xmlns:xlink="http://www.w3.org/1999/xlink" x="0px" y="0px"
	 viewBox="0 0 89.5 89.2" style="enable-background:new 0 0 89.5 89.2;" xml:space="preserve">
<style type="text/css">
	.st0{fill:#C11432;}
</style>
<title>info_12</title>
<path class="st0" d="M44.8,37.8c-5.8,0-10.5-4.7-10.5-10.5S39,16.8,44.8,16.8s10.5,4.7,10.5,10.5l0,0C55.2,33.1,50.5,37.8,44.8,37.8
	z M44.8,21.2c-3.4,0-6.1,2.7-6.1,6.1s2.7,6.1,6.1,6.1s6.1-2.7,6.1-6.1C50.9,23.9,48.2,21.2,44.8,21.2L44.8,21.2z"/>
<path class="st0" d="M50.9,89.2V55.1c0-3.4-2.8-6.1-6.1-6.1s-6.1,2.8-6.1,6.1v34.1l-2.9-0.5C11.5,83.6-4.1,60,0.9,35.8
	S29.5-4.1,53.7,0.9s39.8,28.6,34.9,52.8C85,71.4,71.1,85.1,53.5,88.6L50.9,89.2z M44.8,4.3C22.4,4.3,4.3,22.4,4.3,44.7
	c0,18.3,12.3,34.4,30,39.1V55.1c0-5.8,4.7-10.5,10.5-10.5s10.5,4.7,10.5,10.5l0,0v28.8c21.6-5.8,34.4-28,28.6-49.5
	C79.1,16.6,63.1,4.3,44.8,4.3z"/>
</svg>
