<?xml version="1.0" encoding="utf-8"?>
<!-- Generator: Adobe Illustrator 21.0.0, SVG Export Plug-In . SVG Version: 6.00 Build 0)  -->
<svg version="1.1" id="Livello_1" xmlns="http://www.w3.org/2000/svg" xmlns:xlink="http://www.w3.org/1999/xlink" x="0px" y="0px"
	 viewBox="0 0 100 100" style="enable-background:new 0 0 100 100;" xml:space="preserve">
<style type="text/css">
	.st0{fill:#C11432;}
</style>
<title>Upload s25.3</title>
<desc>Created with Sketch.</desc>
<g>
	<g>
		<path class="st0" d="M68.4,68.4c10.2-10.2,10.2-26.6,0-36.8s-26.6-10.2-36.8,0s-10.2,26.6,0,36.8c0.8,0.8,2,0.8,2.8,0s0.8-2,0-2.8
			c-8.6-8.6-8.6-22.5,0-31.1s22.5-8.6,31.1,0s8.6,22.5,0,31.1c-0.8,0.8-0.8,2,0,2.8C66.3,69.2,67.6,69.2,68.4,68.4z M51.7,39.2
			c-1-1-2.5-1-3.5,0L36.6,51c-1.9,1.9,0.9,4.7,2.8,2.8l7.9-7.9c0.4-0.4,0.7-0.3,0.7,0.3V68c0,1.1,0.9,2,2,2s2-0.9,2-2V46.2
			c0-0.6,0.3-0.7,0.7-0.3l7.9,7.9c1.9,1.9,4.7-0.9,2.8-2.8L51.7,39.2z"/>
	</g>
</g>
</svg>
