<svg fill="#000000" xmlns="http://www.w3.org/2000/svg" xmlns:xlink="http://www.w3.org/1999/xlink" viewBox="0 0 100 100" version="1.1" x="0px" y="0px"><title>Upload s25.3</title><desc>Created with Sketch.</desc><g stroke="none" stroke-width="1" fill="none" fill-rule="evenodd"><g fill="#000000"><path d="M31.6152237,25.6152237 C21.4615921,35.7688553 21.4615921,52.2311447 31.6152237,62.3847763 C41.7688553,72.5384079 58.2311447,72.5384079 68.3847763,62.3847763 C78.5384079,52.2311447 78.5384079,35.7688553 68.3847763,25.6152237 C67.6037277,24.8341751 66.3373978,24.8341751 65.5563492,25.6152237 C64.7753006,26.3962723 64.7753006,27.6626022 65.5563492,28.4436508 C74.1478836,37.0351852 74.1478836,50.9648148 65.5563492,59.5563492 C56.9648148,68.1478836 43.0351852,68.1478836 34.4436508,59.5563492 C25.8521164,50.9648148 25.8521164,37.0351852 34.4436508,28.4436508 C35.2246994,27.6626022 35.2246994,26.3962723 34.4436508,25.6152237 C33.6626022,24.8341751 32.3962723,24.8341751 31.6152237,25.6152237 Z M48.2823393,54.8075017 C49.2509472,55.7884471 50.8210143,55.7845038 51.7942534,54.7935309 L63.3792301,42.9974581 C65.261461,41.1113924 62.4391127,38.2832938 60.5568818,40.1693595 L52.6966045,48.0523895 C52.3096903,48.4404236 51.9960344,48.3041864 51.9960344,47.7539026 L51.9960344,26.0048355 C51.9960344,24.8975954 51.1100789,24 50.0000313,24 C48.8976693,24 48.0040283,24.8956678 48.0040283,26.0048355 L48.0040283,47.7539026 C48.0040283,48.3067865 47.6891903,48.4392381 47.3034582,48.0523895 L39.4431809,40.1693595 C37.561948,38.2832938 34.7386017,41.1113924 36.6208326,42.9974581 L48.2823393,54.8075017 Z" transform="translate(50.000000, 47.000000) rotate(180.000000) translate(-50.000000, -47.000000) "/></g></g></svg>