<?xml version="1.0" encoding="utf-8"?>
<!-- Generator: Adobe Illustrator 21.0.0, SVG Export Plug-In . SVG Version: 6.00 Build 0)  -->
<svg version="1.1" id="Livello_1" xmlns="http://www.w3.org/2000/svg" xmlns:xlink="http://www.w3.org/1999/xlink" x="0px" y="0px"
	 viewBox="0 0 1100 150" style="enable-background:new 0 0 1100 150;" xml:space="preserve">
<g>
	<path d="M126.2,41c0.3,0,1,0.1,2.1,0.1v25c-1.5-0.2-2.9-0.3-4.1-0.3c-1.2-0.1-2.2-0.1-2.9-0.1c-9.8,0-16.4,3.2-19.8,9.6
		c-1.9,3.6-2.8,9.1-2.8,16.6v44.6H74.2V43.1h23.3v16.3c3.8-6.2,7-10.5,9.8-12.7c4.6-3.8,10.5-5.7,17.8-5.7
		C125.5,40.9,125.9,40.9,126.2,41z"/>
	<path d="M166.9,43.1v56.2c0,5.3,0.6,9.3,1.9,12c2.2,4.7,6.6,7.1,13,7.1c8.3,0,14-3.4,17-10.1c1.6-3.6,2.4-8.5,2.4-14.5V43.1h24.7
		v93.2h-23.7v-13.2c-0.2,0.3-0.8,1.1-1.7,2.6c-0.9,1.4-2,2.7-3.2,3.8c-3.8,3.4-7.5,5.8-11,7c-3.5,1.3-7.7,1.9-12.5,1.9
		c-13.8,0-23-5-27.8-14.9c-2.7-5.5-4-13.5-4-24.2V43.1H166.9z"/>
	<path d="M329.2,54.3c7,8.8,10.5,20.2,10.5,34.2c0,14.5-3.4,26.5-10.3,36c-6.9,9.5-16.5,14.3-28.8,14.3c-7.7,0-14-1.5-18.7-4.6
		c-2.8-1.8-5.9-5-9.1-9.6v11.7h-24V10.5h24.4v44.8c3.1-4.3,6.5-7.6,10.2-9.9c4.4-2.9,10-4.3,16.9-4.3
		C312.6,41.1,322.3,45.5,329.2,54.3z M308.9,111.1c3.5-5.1,5.3-11.7,5.3-20c0-6.6-0.9-12.1-2.6-16.4c-3.3-8.2-9.3-12.3-18.1-12.3
		c-8.9,0-15,4-18.4,12.1c-1.7,4.3-2.6,9.8-2.6,16.6c0,8,1.8,14.6,5.3,19.8c3.6,5.2,9,7.9,16.3,7.9
		C300.4,118.8,305.4,116.2,308.9,111.1z"/>
	<path d="M436.2,54.3c7,8.8,10.5,20.2,10.5,34.2c0,14.5-3.4,26.5-10.3,36c-6.9,9.5-16.5,14.3-28.8,14.3c-7.7,0-14-1.5-18.7-4.6
		c-2.8-1.8-5.9-5-9.1-9.6v11.7h-24V10.5h24.4v44.8c3.1-4.3,6.5-7.6,10.2-9.9c4.4-2.9,10-4.3,16.9-4.3
		C419.6,41.1,429.3,45.5,436.2,54.3z M415.9,111.1c3.5-5.1,5.3-11.7,5.3-20c0-6.6-0.9-12.1-2.6-16.4c-3.3-8.2-9.3-12.3-18.1-12.3
		c-8.9,0-15,4-18.4,12.1c-1.7,4.3-2.6,9.8-2.6,16.6c0,8,1.8,14.6,5.3,19.8c3.6,5.2,9,7.9,16.3,7.9
		C407.4,118.8,412.4,116.2,415.9,111.1z"/>
	<path d="M524.4,45c6.5,2.9,11.9,7.5,16.1,13.8c3.8,5.5,6.3,12,7.4,19.3c0.7,4.3,0.9,10.5,0.8,18.5h-67.9c0.4,9.4,3.6,15.9,9.8,19.7
		c3.7,2.3,8.2,3.5,13.4,3.5c5.6,0,10.1-1.4,13.5-4.3c1.9-1.5,3.6-3.7,5-6.4h24.9c-0.7,5.5-3.7,11.1-9,16.9
		c-8.4,9.1-20,13.6-35.1,13.6c-12.4,0-23.4-3.8-32.8-11.5c-9.5-7.6-14.2-20.1-14.2-37.3c0-16.2,4.3-28.5,12.8-37.2
		s19.7-12.9,33.3-12.9C510.6,40.7,517.9,42.1,524.4,45z M487.9,66.1c-3.4,3.6-5.6,8.4-6.5,14.4h42c-0.4-6.5-2.6-11.4-6.5-14.7
		c-3.9-3.4-8.7-5-14.5-5C496.2,60.8,491.4,62.5,487.9,66.1z"/>
	<path d="M612.9,41c0.3,0,1,0.1,2.1,0.1v25c-1.5-0.2-2.9-0.3-4.1-0.3c-1.2-0.1-2.2-0.1-2.9-0.1c-9.8,0-16.4,3.2-19.8,9.6
		c-1.9,3.6-2.8,9.1-2.8,16.6v44.6h-24.5V43.1h23.3v16.3c3.8-6.2,7-10.5,9.8-12.7c4.6-3.8,10.5-5.7,17.8-5.7
		C612.2,40.9,612.6,40.9,612.9,41z"/>
	<path d="M696.3,43.6c4.7,2,8.5,5.1,11.5,9.2c2.6,3.5,4.1,7.1,4.7,10.7c0.6,3.7,0.9,9.7,0.9,18v54.8h-24.9V79.6
		c0-5-0.8-9.1-2.5-12.2c-2.2-4.3-6.4-6.5-12.6-6.5c-6.4,0-11.3,2.2-14.6,6.5c-3.3,4.3-5,10.5-5,18.5v50.5h-24.4V10.7h24.4v44.5
		c3.5-5.4,7.6-9.2,12.2-11.3c4.6-2.1,9.5-3.2,14.6-3.2C686.4,40.7,691.6,41.7,696.3,43.6z"/>
	<path d="M814,125c-7.9,9.7-19.8,14.6-35.8,14.6c-16,0-28-4.9-35.8-14.6s-11.8-21.4-11.8-35.1c0-13.4,3.9-25.1,11.8-35
		c7.9-9.9,19.8-14.8,35.8-14.8c16,0,28,4.9,35.8,14.8c7.9,9.9,11.8,21.5,11.8,35C825.8,103.6,821.9,115.3,814,125z M794.5,111.5
		c3.8-5.1,5.7-12.3,5.7-21.6s-1.9-16.5-5.7-21.6c-3.8-5-9.3-7.6-16.4-7.6c-7.1,0-12.6,2.5-16.5,7.6c-3.8,5-5.8,12.2-5.8,21.6
		s1.9,16.5,5.8,21.6c3.8,5.1,9.3,7.6,16.5,7.6C785.2,119.1,790.7,116.6,794.5,111.5z"/>
	<path d="M862.2,106.6c0.5,4.3,1.6,7.4,3.4,9.2c3,3.3,8.7,4.9,16.9,4.9c4.8,0,8.6-0.7,11.5-2.1c2.8-1.4,4.3-3.6,4.3-6.4
		c0-2.7-1.1-4.8-3.4-6.2c-2.3-1.4-10.8-3.9-25.5-7.4c-10.6-2.6-18.1-5.9-22.4-9.8c-4.3-3.9-6.5-9.5-6.5-16.8c0-8.6,3.4-16,10.2-22.2
		c6.8-6.2,16.3-9.3,28.6-9.3c11.7,0,21.2,2.3,28.5,7c7.3,4.6,11.6,12.7,12.6,24.1h-24.4c-0.3-3.1-1.2-5.6-2.7-7.4
		c-2.7-3.3-7.3-5-13.7-5c-5.3,0-9.1,0.8-11.4,2.5s-3.4,3.6-3.4,5.8c0,2.8,1.2,4.8,3.6,6.1c2.4,1.3,10.9,3.6,25.4,6.8
		c9.7,2.3,17,5.7,21.8,10.4c4.8,4.7,7.2,10.5,7.2,17.5c0,9.2-3.4,16.8-10.3,22.6c-6.9,5.8-17.5,8.8-31.9,8.8
		c-14.7,0-25.5-3.1-32.5-9.3c-7-6.2-10.5-14.1-10.5-23.7H862.2z"/>
	<path d="M1001.4,45c6.5,2.9,11.9,7.5,16.1,13.8c3.8,5.5,6.3,12,7.4,19.3c0.7,4.3,0.9,10.5,0.8,18.5h-67.9
		c0.4,9.4,3.6,15.9,9.8,19.7c3.7,2.3,8.2,3.5,13.4,3.5c5.6,0,10.1-1.4,13.5-4.3c1.9-1.5,3.6-3.7,5-6.4h24.9
		c-0.7,5.5-3.7,11.1-9,16.9c-8.4,9.1-20,13.6-35.1,13.6c-12.4,0-23.4-3.8-32.8-11.5s-14.2-20.1-14.2-37.3c0-16.2,4.3-28.5,12.8-37.2
		c8.6-8.6,19.7-12.9,33.3-12.9C987.6,40.7,994.9,42.1,1001.4,45z M965,66.1c-3.4,3.6-5.6,8.4-6.5,14.4h42
		c-0.4-6.5-2.6-11.4-6.5-14.7c-3.9-3.4-8.7-5-14.5-5C973.3,60.8,968.4,62.5,965,66.1z"/>
</g>
</svg>
